<?xml version="1.0" encoding="UTF-8" standalone="no"?>
<svg width="86px" height="75px" viewBox="0 0 86 75" version="1.1" xmlns="http://www.w3.org/2000/svg" xmlns:xlink="http://www.w3.org/1999/xlink" xmlns:sketch="http://www.bohemiancoding.com/sketch/ns">
    <!-- Generator: Sketch 3.3.3 (12072) - http://www.bohemiancoding.com/sketch -->
    <title>logo</title>
    <desc>Created with Sketch.</desc>
    <defs></defs>
    <g id="Page-1" stroke="none" stroke-width="1" fill="none" fill-rule="evenodd" sketch:type="MSPage">
        <g id="Imported-Layers" sketch:type="MSLayerGroup">
            <polygon id="Triangle-2" fill="#FFFFFF" sketch:type="MSShapeGroup" points="43 0 85 74 1 74 "></polygon>
            <path d="M84.5817615,74.9482422 L0.989554147,74.9482422 L0.131796083,73.4914062 L41.9280968,0.11796875 L43.6434159,0.11796875 L85.4393226,73.4914062 L84.5817615,74.9482422 L84.5817615,74.9482422 Z M2.67709562,72.9951172 L82.89422,72.9951172 L42.7856578,2.58398437 L2.67709562,72.9951172 L2.67709562,72.9951172 Z" id="Fill-1" fill="#1D1D1B" sketch:type="MSShapeGroup"></path>
            <path d="M47.5876452,32.8369141 C47.5876452,35.4662109 45.4377339,37.5976562 42.7856578,37.5976562 C40.1335818,37.5976562 37.9836705,35.4662109 37.9836705,32.8369141 C37.9836705,30.2076172 40.1335818,28.0761719 42.7856578,28.0761719 C45.4377339,28.0761719 47.5876452,30.2076172 47.5876452,32.8369141" id="Fill-2" fill="#1D1D1B" sketch:type="MSShapeGroup"></path>
            <path d="M42.7856578,23.4734375 C49.63275,23.4734375 55.7162523,26.7736328 59.5050449,31.853125 L56.0241705,25.7423828 C52.2921152,23.0863281 47.7200323,21.5203125 42.7856578,21.5203125 C37.8512834,21.5203125 33.2792005,23.0863281 29.5471452,25.7423828 L26.0662707,31.853125 C29.8550634,26.7736328 35.9385657,23.4734375 42.7856578,23.4734375" id="Fill-3" fill="#000000" sketch:type="MSShapeGroup"></path>
            <path d="M42.7856578,42.5277344 C36.893841,42.5277344 31.293394,39.7111328 27.8044424,34.9933594 L27.8044424,33.8382813 C31.293394,29.1205078 36.893841,26.3039063 42.7856578,26.3039063 C48.6774747,26.3039063 54.2779217,29.1205078 57.7670703,33.8382813 L57.7670703,34.9933594 C54.2779217,39.7111328 48.6774747,42.5277344 42.7856578,42.5277344 L42.7856578,42.5277344 Z M29.840485,34.4158203 C32.9787684,38.2853516 37.7638134,40.5746094 42.7856578,40.5746094 C47.8073053,40.5746094 52.5925472,38.2853516 55.7308306,34.4158203 C52.5925472,30.5464844 47.8073053,28.2570313 42.7856578,28.2570313 C37.7638134,28.2570313 32.9787684,30.5464844 29.840485,34.4158203 L29.840485,34.4158203 Z" id="Fill-4" fill="#1D1D1B" sketch:type="MSShapeGroup"></path>
            <path d="M42.7856578,42.5277344 C36.893644,42.5277344 31.293197,39.7111328 27.8042454,34.9933594 L27.8042454,33.8382813 C31.293197,29.1205078 36.893644,26.3039063 42.7856578,26.3039063 C48.6774747,26.3039063 54.2779217,29.1205078 57.7668733,33.8382813 L57.7668733,34.9933594 C54.2779217,39.7111328 48.6774747,42.5277344 42.7856578,42.5277344 L42.7856578,42.5277344 Z M29.840288,34.4158203 C32.9787684,38.2853516 37.7638134,40.5746094 42.7856578,40.5746094 C47.8073053,40.5746094 52.5925472,38.2853516 55.7308306,34.4158203 C52.5925472,30.5464844 47.8073053,28.2570313 42.7856578,28.2570313 C37.7638134,28.2570313 32.9787684,30.5464844 29.840288,34.4158203 L29.840288,34.4158203 Z" id="Fill-5" fill="#1D1D1B" sketch:type="MSShapeGroup"></path>
            <path d="M49.6561935,32.7880859 C49.6561935,36.5439453 46.5742535,39.5996094 42.7856578,39.5996094 C38.9972592,39.5996094 35.9151221,36.5439453 35.9151221,32.7880859 C35.9151221,31.5347656 36.2596832,30.3603516 36.8577892,29.3505859 C35.9411267,29.6994141 35.0573641,30.1291016 34.2165484,30.6316406 C34.0396382,31.3216797 33.945076,32.0441406 33.945076,32.7880859 C33.945076,35.5552734 35.2464885,38.0251953 37.2728779,39.6326172 C39.0262189,40.2476562 40.8888975,40.5746094 42.7856578,40.5746094 C44.6824182,40.5746094 46.5452938,40.2474609 48.2984378,39.6326172 C50.3248272,38.025 51.6262396,35.5550781 51.6262396,32.7880859 C51.6262396,32.0441406 51.5316774,31.321875 51.3547673,30.6316406 C50.5139516,30.1291016 49.6301889,29.6996094 48.7135265,29.3505859 C49.3116325,30.3603516 49.6561935,31.5347656 49.6561935,32.7880859" id="Fill-6" fill="#000000" sketch:type="MSShapeGroup"></path>
            <path d="M48.7135265,29.3505859 C47.9572258,28.0738281 46.7947016,27.0619141 45.402076,26.4910156 C44.5403779,26.3681641 43.6662684,26.3039063 42.7854608,26.3039063 C41.9048502,26.3039063 41.0309378,26.3681641 40.1694366,26.4908203 C38.7768111,27.0617188 37.6140899,28.0738281 36.8577892,29.3505859 C38.730712,28.6376953 40.7383859,28.2570313 42.7854608,28.2570313 C44.8327327,28.2570313 46.8404067,28.6376953 48.7135265,29.3505859" id="Fill-7" fill="#000000" sketch:type="MSShapeGroup"></path>
            <path d="M50.0308963,27.7746094 C50.6339274,28.6289063 51.0888111,29.5929688 51.3547673,30.6316406 C53.010394,31.6210938 54.4981728,32.8958984 55.7308306,34.4158203 C53.777924,36.8236328 51.1871164,38.6193359 48.2984378,39.6326172 C46.7856394,40.8326172 44.8693756,41.5527344 42.7856578,41.5527344 C40.7019401,41.5527344 38.7858733,40.8326172 37.2728779,39.6326172 C34.3843963,38.6193359 31.7933917,36.8238281 29.840288,34.4158203 C31.0731429,32.8957031 32.5609217,31.6208984 34.2165484,30.6316406 C34.4825046,29.5929688 34.9373882,28.6287109 35.5406164,27.7746094 C32.4970922,29.0572266 29.8036452,31.1349609 27.8042454,33.8382813 L27.8042454,34.9933594 C31.293197,39.7111328 36.893644,42.5277344 42.7856578,42.5277344 C48.6774747,42.5277344 54.2779217,39.7111328 57.7668733,34.9933594 L57.7668733,33.8382813 C55.7676705,31.1349609 53.0742235,29.0572266 50.0308963,27.7746094" id="Fill-8" fill="#000000" sketch:type="MSShapeGroup"></path>
            <path d="M42.450553,29.3505859 C43.2066567,28.0738281 44.3693779,27.0617187 45.7622005,26.4908203 C44.16272,26.7189453 42.6069747,27.1535156 41.1331832,27.7746094 C40.5299551,28.6287109 40.0752684,29.5929687 39.8091152,30.6316406 C40.6501279,30.1291016 41.5338906,29.6994141 42.450553,29.3505859" id="Fill-9" fill="#000000" sketch:type="MSShapeGroup"></path>
            <path d="M43.1207627,29.3505859 C44.0374251,29.6996094 44.9211878,30.1291016 45.7620035,30.6316406 C45.4960472,29.5929687 45.0411636,28.6289062 44.4381325,27.7746094 C42.964341,27.1535156 41.4085956,26.7189453 39.8093122,26.4910156 C41.2019378,27.0619141 42.364659,28.0738281 43.1207627,29.3505859" id="Fill-10" fill="#000000" sketch:type="MSShapeGroup"></path>
            <path d="M42.7856578,44.7265625 C36.9056613,44.7265625 31.5887039,42.2927734 27.8042454,38.3884766 L27.8042454,41.0851562 C31.8097431,44.5662109 37.0530207,46.6796875 42.7856578,46.6796875 C48.5180979,46.6796875 53.7615726,44.5662109 57.7668733,41.0851562 L57.7668733,38.3882812 C53.9826118,42.2925781 48.6656544,44.7265625 42.7856578,44.7265625" id="Fill-11" fill="#000000" sketch:type="MSShapeGroup"></path>
            <path d="M70.8219747,56.7224609 L67.4569389,53.3863281 L63.2506935,57.5566406 L65.7743226,60.0585937 L67.4569389,58.390625 L66.6157293,57.5566406 L67.4569389,56.7224609 L69.1393583,58.390625 L65.7743226,61.7267578 L67.4569389,63.3947266 L72.504394,58.390625 L70.8219747,56.7224609" id="Fill-12" fill="#000000" sketch:type="MSShapeGroup"></path>
            <path d="M54.8380058,64.2289062 L59.0444482,60.0585938 L56.5206221,57.5566406 L54.8380058,59.2246094 L55.6792154,60.0585938 L54.8380058,60.8925781 L53.1555864,59.2246094 L51.47297,60.8925781 L54.8380058,64.2289062" id="Fill-13" fill="#000000" sketch:type="MSShapeGroup"></path>
            <path d="M16.4317604,58.390625 L18.1143767,56.7224609 L18.9555864,57.5566406 L18.1143767,58.390625 L19.7967961,60.0585937 L22.3206221,57.5566406 L18.1143767,53.3863281 L13.0667247,58.390625 L18.1143767,63.3947266 L19.7967961,61.7267578 L16.4317604,58.390625" id="Fill-14" fill="#000000" sketch:type="MSShapeGroup"></path>
            <path d="M30.7333099,60.8927734 L29.8919032,60.0585938 L30.7333099,59.2246094 L29.0506935,57.5566406 L26.5268675,60.0585938 L30.7333099,64.2289062 L34.0983456,60.8927734 L32.4157293,59.2246094 L30.7333099,60.8927734" id="Fill-15" fill="#000000" sketch:type="MSShapeGroup"></path>
            <path d="M27.3682742,54.2205078 L18.1143767,63.3947266 L24.8444482,70.0669922 L29.8919032,65.0628906 L25.6856578,60.8927734 L23.1618318,63.3947266 L24.8444482,65.0628906 L25.6856578,64.2289063 L26.5268675,65.0628906 L24.8444482,66.7308594 L21.4794124,63.3947266 L29.0506935,55.8884766 L41.1032385,67.8373047 L34.6477915,74.2373047 L35.3908929,74.9738281 L37.2697258,74.9738281 L42.7856578,69.5054688 L48.3013929,74.9738281 L50.1804228,74.9738281 L50.9235242,74.2373047 L44.4680772,67.8373047 L56.5206221,55.8884766 L64.0919032,63.3947266 L60.7268675,66.7308594 L59.0444482,65.0628906 L59.8856578,64.2289063 L60.7268675,65.0628906 L62.4094839,63.3947266 L59.8856578,60.8925781 L55.6792154,65.0628906 L60.7268675,70.0669922 L67.4569389,63.3947266 L58.2030415,54.2205078 L61.5680772,50.8841797 L63.2506935,52.5523438 L62.4094839,53.3863281 L61.5680772,52.5523438 L59.8856578,54.2205078 L62.4094839,56.7224609 L66.6157293,52.5523438 L63.2506935,49.2162109 L64.0919032,48.3822266 L62.4094839,46.7140625 L42.7856578,66.1693359 L23.1618318,46.7140625 L21.4794124,48.3822266 L22.3206221,49.2162109 L18.9555864,52.5523438 L23.1618318,56.7224609 L25.6856578,54.2205078 L24.0032385,52.5523438 L23.1618318,53.3863281 L22.3206221,52.5523438 L24.0032385,50.8841797 L27.3682742,54.2205078" id="Fill-16" fill="#000000" sketch:type="MSShapeGroup"></path>
        </g>
    </g>
</svg>